<svg width="34" height="34" viewBox="0 0 34 34" fill="none" xmlns="http://www.w3.org/2000/svg">
<path fill-rule="evenodd" clip-rule="evenodd" d="M17 8C15.8954 8 15 8.89543 15 10V13H13V10C13 7.79086 14.7909 6 17 6C19.2091 6 21 7.79086 21 10V13H19V10C19 8.89543 18.1046 8 17 8ZM25.1394 11L24.9604 9.1976C24.5592 5.15708 21.1471 2 17 2C12.8529 2 9.44076 5.15708 9.03959 9.1976L8.86064 11H4.10752C2.80882 11 1.85456 12.2185 2.16581 13.4793L6.36238 30.4793C6.58286 31.3725 7.38415 32 8.30409 32H25.6959C26.6159 32 27.4172 31.3725 27.6377 30.4793L31.8342 13.4793C32.1455 12.2185 31.1912 11 29.8925 11H25.1394ZM26.9506 9H29.8925C32.4899 9 34.3984 11.4369 33.7759 13.9587L29.5794 30.9587C29.1384 32.7449 27.5358 34 25.6959 34H8.30409C6.46421 34 4.86162 32.7449 4.42067 30.9587L0.224096 13.9586C-0.398404 11.4369 1.51012 9 4.10752 9H7.04938C7.5511 3.94668 11.8147 0 17 0C22.1853 0 26.4489 3.94668 26.9506 9Z" fill="#8E898F"/>
</svg>
