<svg width="22" height="21" viewBox="0 0 22 21" fill="none" xmlns="http://www.w3.org/2000/svg">
<path fill-rule="evenodd" clip-rule="evenodd" d="M3.95961 8.46875C3.92768 8.46875 3.92768 8.46875 3.89574 8.46875L0.0960351 9.75C0.0321745 9.78125 0.000244141 9.84375 0.000244141 9.90625V11.125C0.000244141 11.2188 0.0960351 11.3125 0.223756 11.2812L1.8522 10.8125C1.94799 10.7812 2.07572 10.8437 2.07572 10.9688V17.0625C2.07572 17.1562 2.13958 17.2188 2.23537 17.2188H3.99154C4.08733 17.2188 4.15119 17.1562 4.15119 17.0625V8.625C4.11926 8.53125 4.02347 8.46875 3.95961 8.46875ZM10.0902 16.6562C10.633 16.2188 10.9204 15.5938 10.9204 14.8125C10.9204 14.3125 10.7927 13.9063 10.5373 13.5625C10.3457 13.2813 10.0902 13.0625 9.80286 12.875C9.70707 12.8125 9.67514 12.6562 9.80286 12.5625C10.0583 12.375 10.2818 12.1875 10.4415 11.9375C10.665 11.625 10.7608 11.25 10.7608 10.8125C10.7608 10.0625 10.5053 9.4375 9.96251 9C9.41969 8.5625 8.71723 8.34375 7.82318 8.34375C6.92913 8.34375 6.22666 8.5625 5.68384 9C5.14103 9.4375 4.88559 10.0312 4.88559 10.8125C4.88559 11.25 4.98138 11.625 5.20489 11.9375C5.36454 12.1875 5.58805 12.375 5.84349 12.5625C5.93929 12.625 5.93929 12.7812 5.84349 12.875C5.52419 13.0625 5.26875 13.3125 5.07717 13.5938C4.82172 13.9688 4.694 14.375 4.694 14.8438C4.694 15.625 4.98138 16.25 5.52419 16.6875C6.09894 17.1562 6.83334 17.375 7.82318 17.375C8.78109 17.3438 9.54741 17.125 10.0902 16.6562ZM7.18457 10.1875C7.34422 10 7.5358 9.90625 7.82318 9.90625C8.11055 9.90625 8.33406 10 8.46178 10.1875C8.62143 10.375 8.6853 10.625 8.6853 10.9375C8.6853 11.25 8.62143 11.5 8.46178 11.6875C8.33406 11.875 8.11055 11.9688 7.82318 11.9688C7.5358 11.9688 7.31229 11.875 7.18457 11.6875C7.02492 11.5 6.96106 11.25 6.96106 10.9375C6.96106 10.5938 7.02492 10.3438 7.18457 10.1875ZM6.76947 14.6562C6.76947 14.2812 6.86527 14.0312 7.05685 13.8125C7.24843 13.625 7.50387 13.5312 7.82318 13.5312C8.14248 13.5312 8.39792 13.625 8.5895 13.8125C8.78109 14 8.87688 14.2812 8.87688 14.6562C8.87688 15 8.78109 15.2812 8.5895 15.5C8.39792 15.6875 8.14248 15.8125 7.85511 15.8125C7.5358 15.8125 7.28036 15.7187 7.08878 15.5C6.86527 15.2812 6.76947 15 6.76947 14.6562ZM14.4008 9.65625H13.5387C13.2513 9.65625 12.9959 9.90625 12.9959 10.1875V11.4062C12.9959 11.6875 12.7404 11.9375 12.4531 11.9375H11.4313C11.1439 11.9375 10.8885 12.1875 10.8885 12.4688V13.1562C10.8885 13.4375 11.1439 13.6875 11.4313 13.6875H12.4531C12.7404 13.6875 12.9959 13.9375 12.9959 14.2188V15.5C12.9959 15.7812 13.2513 16.0312 13.5387 16.0312H14.4008C14.6882 16.0312 14.9436 15.7812 14.9436 15.5V14.2188C14.9436 13.9375 15.1991 13.6875 15.4865 13.6875H16.5082C16.7956 13.6875 17.051 13.4375 17.051 13.1562V12.4688C17.051 12.1875 16.7956 11.9375 16.5082 11.9375H15.4865C15.1991 11.9375 14.9436 11.6875 14.9436 11.4062V10.1875C14.9436 9.90625 14.7201 9.65625 14.4008 9.65625ZM21.1381 6.84375H19.3181C19.3181 6.84375 19.2862 6.84375 19.2862 6.8125V5.4375C19.2862 3.25 17.4661 1.46875 15.231 1.46875C15.1352 1.46875 15.0714 1.46875 14.9756 1.46875C14.9756 1.46875 14.9756 1.46875 14.9436 1.46875C14.305 0.5625 13.2194 0 12.038 0C10.3457 0 8.87688 1.1875 8.49371 2.78125C7.50387 3.28125 6.86527 4.3125 6.86527 5.4375V7.625C6.86527 7.8125 7.02492 7.9375 7.2165 7.9375C7.40808 7.90625 7.59966 7.90625 7.82318 7.90625C7.9509 7.90625 8.07862 7.90625 8.20634 7.90625C8.39792 7.90625 8.55757 7.78125 8.55757 7.59375V6.25C8.55757 6.25 8.55757 6.21875 8.5895 6.21875H17.6577C17.6577 6.21875 17.6896 6.21875 17.6896 6.25V7.625V17.2812C17.6896 17.3125 17.6896 17.3438 17.6896 17.375C17.6896 17.375 17.6896 17.375 17.6896 17.4062C17.6896 17.4375 17.6896 17.4375 17.6896 17.4688L18.1047 19.3125C18.1047 19.3125 18.1047 19.3438 18.0728 19.3438H8.07862C8.07862 19.3438 8.04669 19.3438 8.04669 19.3125L8.33406 18.125C8.36599 17.9375 8.23827 17.75 8.01476 17.75C7.9509 17.75 7.88704 17.75 7.82318 17.75C7.5358 17.75 7.28036 17.7188 7.02492 17.6875C6.86527 17.6562 6.70561 17.7812 6.67368 17.9375L6.19473 19.9375C6.1628 20.0938 6.1628 20.2812 6.22666 20.4375C6.35438 20.75 6.67368 20.9688 6.99299 20.9688H19.0946C19.2223 20.9688 19.35 20.9375 19.4777 20.875C19.829 20.6875 20.0206 20.3125 19.9248 19.9688L19.5097 18.125C19.5097 18.125 19.5097 18.0938 19.5416 18.0938H21.1381C21.6171 18.0938 22.0002 17.7188 22.0002 17.25V7.65625C22.0002 7.21875 21.6171 6.84375 21.1381 6.84375ZM17.4661 4.625H8.84495C8.81302 4.625 8.81302 4.59375 8.81302 4.59375C8.97267 4.375 9.22811 4.21875 9.48355 4.125C9.80286 4.03125 10.0583 3.71875 10.0902 3.375C10.186 2.375 11.0481 1.625 12.038 1.625C12.8043 1.625 13.4748 2.03125 13.7941 2.6875C13.9538 3.03125 14.337 3.21875 14.7201 3.15625C14.9117 3.125 15.0714 3.09375 15.231 3.09375C16.2847 3.09375 17.1468 3.71875 17.4661 4.625C17.4981 4.625 17.4661 4.625 17.4661 4.625ZM20.3399 16.4688C20.3399 16.5 20.3399 16.5 20.3399 16.4688L19.3181 16.5C19.3181 16.5 19.2862 16.5 19.2862 16.4688V8.46875C19.2862 8.46875 19.2862 8.4375 19.3181 8.4375H20.3079C20.3079 8.4375 20.3399 8.4375 20.3399 8.46875V16.4688Z" fill="white"/>
</svg>
