<svg width="24" height="24" viewBox="0 0 24 24" fill="none" xmlns="http://www.w3.org/2000/svg">
<path d="M23.9977 6.71728C23.9809 6.51928 23.8812 6.33759 23.7231 6.21717C23.1968 5.81644 22.6644 5.62889 22.1945 5.46342C22.0606 5.41627 21.9305 5.37038 21.803 5.32092C21.8287 5.10731 21.8309 4.88967 21.8069 4.67166C21.718 3.86452 21.285 3.1403 20.619 2.68477C18.0148 0.903281 15.1162 0 12.0038 0C8.88663 0 5.98564 0.903281 3.3814 2.68477C2.71545 3.1403 2.28251 3.86447 2.19354 4.67166C2.1695 4.88967 2.17175 5.10731 2.19743 5.32092C2.06993 5.37038 1.93981 5.41627 1.80589 5.46342C1.33606 5.62889 0.803558 5.81644 0.277339 6.21717C0.11923 6.33759 0.01948 6.51928 0.00274567 6.71728C-0.0139887 6.91533 0.0537925 7.11117 0.189402 7.25644L2.43148 9.65761C2.56601 9.80166 2.75285 9.88088 2.94542 9.88088C2.99693 9.88088 3.04887 9.8752 3.10034 9.86358C3.344 9.80855 3.54021 9.62831 3.61568 9.39019C3.63978 9.31416 3.66509 9.23334 3.69153 9.14883C3.82817 8.71223 4.00062 8.16202 4.19182 7.69467C4.9715 7.93012 5.83498 7.82578 6.52709 7.35052C8.19467 6.20555 10.0373 5.625 12.0038 5.625C13.9931 5.625 15.7822 6.18942 17.4733 7.35052C17.9295 7.66369 18.4599 7.81584 18.9919 7.81584C19.2671 7.81584 19.5426 7.77455 19.8085 7.69425C19.9998 8.16169 20.1723 8.71209 20.3089 9.14883C20.3354 9.23334 20.3607 9.3142 20.3848 9.39019C20.4603 9.62836 20.6565 9.80855 20.9001 9.86358C20.9516 9.8752 21.0035 9.88088 21.0551 9.88088C21.2476 9.88088 21.4345 9.80166 21.569 9.65761L23.8111 7.25644C23.9466 7.11117 24.0145 6.91533 23.9977 6.71728Z" fill="white"/>
<path d="M14.114 9.84375H12.7078V7.06017C12.4765 7.04109 12.2422 7.03125 12.0046 7.03125C11.7681 7.03125 11.5338 7.04152 11.3015 7.06125V9.84375H9.89526V7.308C9.41489 7.43761 8.94581 7.61278 8.48901 7.83277V10.5469C8.48901 12.2446 9.69876 13.6651 11.3015 13.9918V16.875H10.5984C10.2101 16.875 9.89526 17.1898 9.89526 17.5781V23.2969C9.89526 23.6852 10.2101 24 10.5984 24H13.4109C13.7992 24 14.114 23.6852 14.114 23.2969V17.5781C14.114 17.1898 13.7992 16.875 13.4109 16.875H12.7078V13.9918C14.3105 13.6651 15.5203 12.2447 15.5203 10.5469V7.83248C15.062 7.60936 14.5941 7.43339 14.114 7.30397V9.84375Z" fill="white"/>
</svg>
