<svg width="24" height="14" viewBox="0 0 24 14" fill="none" xmlns="http://www.w3.org/2000/svg">
<path d="M3.70192 11.2965C3.72209 11.0498 3.74333 10.8021 3.78507 10.5538C3.86456 9.96161 4.03558 9.36944 4.20951 8.79046C4.31825 8.50202 4.43399 8.21811 4.55301 7.93959C4.70827 7.66873 4.85988 7.39905 5.01004 7.13538C5.35285 6.62013 5.73443 6.13921 6.19039 5.73626C6.29989 5.63272 6.40643 5.53164 6.51157 5.43084C6.63211 5.34129 6.75144 5.25368 6.86939 5.16664C7.11291 5.00074 7.32459 4.82279 7.56956 4.68956C8.05408 4.41955 8.48546 4.16301 8.92346 4.00373C9.34569 3.82766 9.70861 3.67363 10.0349 3.58711C10.6732 3.39402 11.0362 3.29677 11.0362 3.29677C11.0362 3.29677 10.7263 3.48083 10.185 3.77935C9.90454 3.91726 9.61046 4.13337 9.257 4.35364C8.89118 4.56455 8.55682 4.86614 8.16276 5.157C7.96425 5.30423 7.8105 5.49098 7.62371 5.66213C7.53218 5.74865 7.43913 5.83762 7.34464 5.92689C7.26515 6.02494 7.18496 6.1238 7.10257 6.22408C6.75352 6.61214 6.49279 7.06838 6.22033 7.532C6.11014 7.77312 5.99554 8.01817 5.88049 8.26643C5.80175 8.52518 5.71419 8.78555 5.61825 9.04539C5.4754 9.57827 5.33444 10.1215 5.27544 10.6818C5.23257 10.8845 5.21101 11.09 5.18826 11.2954C11.1139 11.2965 15.7016 11.2987 22.1199 11.2987C22.1411 11.0877 22.1536 10.8746 22.1536 10.6587C22.1536 6.60477 18.213 3.26661 13.1468 2.82441C13.4727 2.59421 13.6786 2.26851 13.6786 1.90564C13.6772 1.21102 12.9271 0.647461 11.9998 0.647461C11.0722 0.647461 10.3197 1.21102 10.3197 1.90706C10.3197 2.26959 10.5255 2.59534 10.8533 2.8255C5.78517 3.26769 1.84692 6.6059 1.84692 10.6599C1.84692 10.8747 1.85751 11.0866 1.87844 11.2966C2.50474 11.2965 3.10935 11.2965 3.70192 11.2965Z" fill="#231F20"/>
<path d="M24.0002 11.7646H0V13.3527H24.0002V11.7646Z" fill="#231F20"/>
</svg>
