<svg width="29" height="31" viewBox="0 0 29 31" fill="none" xmlns="http://www.w3.org/2000/svg">
<path fill-rule="evenodd" clip-rule="evenodd" d="M14.0576 14.2112C17.4296 14.2112 20.1632 11.4776 20.1632 8.10558C20.1632 4.73356 17.4296 2 14.0576 2C10.6856 2 7.95203 4.73356 7.95203 8.10558C7.95203 11.4776 10.6856 14.2112 14.0576 14.2112ZM14.0576 16.2112C18.5342 16.2112 22.1632 12.5822 22.1632 8.10558C22.1632 3.62899 18.5342 0 14.0576 0C9.58102 0 5.95203 3.62899 5.95203 8.10558C5.95203 12.5822 9.58102 16.2112 14.0576 16.2112Z" fill="#8E898F"/>
<path fill-rule="evenodd" clip-rule="evenodd" d="M20.6699 19.4671C18.727 20.5997 16.4666 21.2492 14.0576 21.2492C11.6487 21.2492 9.38824 20.5997 7.44539 19.4671L2.45212 25.6447C1.39497 26.9526 2.32584 28.902 4.00755 28.902H24.1077C25.7894 28.902 26.7203 26.9526 25.6632 25.6447L20.6699 19.4671ZM21.0538 16.7803C19.1411 18.3245 16.7074 19.2492 14.0576 19.2492C11.4076 19.2492 8.97359 18.3243 7.06078 16.7797C7.0578 16.7773 7.05482 16.7749 7.05183 16.7725L0.896689 24.3875C-1.21761 27.0032 0.644151 30.902 4.00755 30.902H24.1077C27.4711 30.902 29.3329 27.0032 27.2186 24.3875L21.0635 16.7725C21.0602 16.7751 21.057 16.7777 21.0538 16.7803Z" fill="#8E898F"/>
</svg>
